<?xml version="1.0" encoding="UTF-8" standalone="no"?>
<svg
   xmlns:dc="http://purl.org/dc/elements/1.1/"
   xmlns:cc="http://creativecommons.org/ns#"
   xmlns:rdf="http://www.w3.org/1999/02/22-rdf-syntax-ns#"
   xmlns:svg="http://www.w3.org/2000/svg"
   xmlns="http://www.w3.org/2000/svg"
   xmlns:sodipodi="http://sodipodi.sourceforge.net/DTD/sodipodi-0.dtd"
   xmlns:inkscape="http://www.inkscape.org/namespaces/inkscape"
   version="1.1"
   x="0px"
   y="0px"
   viewBox="0 0 50 50"
   xml:space="preserve"
   id="svg8"
   sodipodi:docname="noun_Error_3671601.svg"
   width="50"
   height="50"
   inkscape:version="1.0.1 (3bc2e813f5, 2020-09-07)"><metadata
     id="metadata14"><rdf:RDF><cc:Work
         rdf:about=""><dc:format>image/svg+xml</dc:format><dc:type
           rdf:resource="http://purl.org/dc/dcmitype/StillImage" /></cc:Work></rdf:RDF></metadata><defs
     id="defs12" /><sodipodi:namedview
     pagecolor="#ffffff"
     bordercolor="#666666"
     borderopacity="1"
     objecttolerance="10"
     gridtolerance="10"
     guidetolerance="10"
     inkscape:pageopacity="0"
     inkscape:pageshadow="2"
     inkscape:window-width="1920"
     inkscape:window-height="1048"
     id="namedview10"
     showgrid="false"
     inkscape:zoom="7.9866667"
     inkscape:cx="25.125209"
     inkscape:cy="32.5"
     inkscape:window-x="0"
     inkscape:window-y="402"
     inkscape:window-maximized="1"
     inkscape:current-layer="svg8" /><path
     d="M 25,0 C 11.220032,0 0,11.210022 0,25 0,38.789978 11.220032,50 25,50 38.790039,50 50,38.789978 50,25 50,11.210022 38.790039,0 25,0 Z m 0,42.75 c -2.200012,0 -4,-1.789978 -4,-4 0,-2.210022 1.799988,-4 4,-4 2.210022,0 4,1.789978 4,4 0,2.210022 -1.789978,4 -4,4 z M 29.200012,27.980041 C 29.100037,30.23999 27.26001,32 25,32 22.75,32 20.900024,30.23999 20.809998,27.980041 L 20.119995,12.350037 C 20.059995,11.01001 20.540039,9.730041 21.470032,8.76001 22.400024,7.790039 23.660034,7.25 25,7.25 c 1.350037,0 2.600037,0.540039 3.540039,1.51001 0.929993,0.970032 1.409973,2.25 1.349976,3.590027 z"
     id="path2"
     style="stroke:none;stroke-opacity:1;fill:#ff0202;fill-opacity:1" /></svg>
