<?xml version="1.0" encoding="UTF-8" standalone="no"?>
<svg
   xmlns:dc="http://purl.org/dc/elements/1.1/"
   xmlns:cc="http://creativecommons.org/ns#"
   xmlns:rdf="http://www.w3.org/1999/02/22-rdf-syntax-ns#"
   xmlns:svg="http://www.w3.org/2000/svg"
   xmlns="http://www.w3.org/2000/svg"
   xmlns:sodipodi="http://sodipodi.sourceforge.net/DTD/sodipodi-0.dtd"
   xmlns:inkscape="http://www.inkscape.org/namespaces/inkscape"
   version="1.1"
   x="0px"
   y="0px"
   viewBox="0 0 67.712799 67.712799"
   xml:space="preserve"
   id="svg22"
   sodipodi:docname="flip.svg"
   width="67.712799"
   height="67.712799"
   inkscape:version="1.0.1 (3bc2e813f5, 2020-09-07)"><metadata
     id="metadata28"><rdf:RDF><cc:Work
         rdf:about=""><dc:format>image/svg+xml</dc:format><dc:type
           rdf:resource="http://purl.org/dc/dcmitype/StillImage" /></cc:Work></rdf:RDF></metadata><defs
     id="defs26" /><sodipodi:namedview
     pagecolor="#ffffff"
     bordercolor="#666666"
     borderopacity="1"
     objecttolerance="10"
     gridtolerance="10"
     guidetolerance="10"
     inkscape:pageopacity="0"
     inkscape:pageshadow="2"
     inkscape:window-width="1920"
     inkscape:window-height="1048"
     id="namedview24"
     showgrid="false"
     inkscape:zoom="4.792"
     inkscape:cx="41.683546"
     inkscape:cy="69.346537"
     inkscape:window-x="0"
     inkscape:window-y="402"
     inkscape:window-maximized="1"
     inkscape:current-layer="svg22"
     inkscape:document-rotation="0" /><title
     id="title2">Artboard 1</title><circle
     style="fill:#000000;fill-opacity:0.5018577;stop-color:#000000"
     id="path853"
     cx="33.8564"
     cy="33.8564"
     r="33.8564" /><g
     id="g16"
     transform="matrix(0,0.80505558,-0.80505558,0,74.109179,-6.3963796)"
     style="fill:#ffffff;fill-opacity:1;stroke:none;stroke-opacity:1"><path
       d="m 63.1,75.7 c 0,1.5 -1.2,2.7 -2.6,2.7 h -21 c -0.6,0 -1.2,-0.2 -1.7,-0.6 -1.1,-0.9 -1.3,-2.6 -0.4,-3.7 L 47.9,61 c 0.1,-0.2 0.3,-0.3 0.4,-0.4 1.1,-0.9 2.8,-0.7 3.7,0.4 l 10.5,13.1 c 0.4,0.5 0.6,1 0.6,1.6 z"
       id="path4"
       style="fill:#ffffff;fill-opacity:1;stroke:none;stroke-opacity:1" /><path
       d="m 74,54 v 0 c -2.2,0 -4,-1.8 -4,-4 v 0 c 0,-2.2 1.8,-4 4,-4 v 0 c 2.2,0 4,1.8 4,4 v 0 c 0,2.2 -1.8,4 -4,4 z"
       id="path6"
       style="fill:#ffffff;fill-opacity:1;stroke:none;stroke-opacity:1" /><path
       d="m 58,54 v 0 c -2.2,0 -4,-1.8 -4,-4 v 0 c 0,-2.2 1.8,-4 4,-4 v 0 c 2.2,0 4,1.8 4,4 v 0 c 0,2.2 -1.8,4 -4,4 z"
       id="path8"
       style="fill:#ffffff;fill-opacity:1;stroke:none;stroke-opacity:1" /><path
       d="m 42,54 v 0 c -2.2,0 -4,-1.8 -4,-4 v 0 c 0,-2.2 1.8,-4 4,-4 v 0 c 2.2,0 4,1.8 4,4 v 0 c 0,2.2 -1.8,4 -4,4 z"
       id="path10"
       style="fill:#ffffff;fill-opacity:1;stroke:none;stroke-opacity:1" /><path
       d="m 26,54 v 0 c -2.2,0 -4,-1.8 -4,-4 v 0 c 0,-2.2 1.8,-4 4,-4 v 0 c 2.2,0 4,1.8 4,4 v 0 c 0,2.2 -1.8,4 -4,4 z"
       id="path12"
       style="fill:#ffffff;fill-opacity:1;stroke:none;stroke-opacity:1" /><path
       d="M 62.6,25.9 52.1,39 c -0.9,1.1 -2.6,1.3 -3.7,0.4 C 48.2,39.3 48.1,39.1 48,39 L 37.4,25.9 c -0.9,-1.1 -0.7,-2.8 0.4,-3.7 0.5,-0.4 1.1,-0.6 1.7,-0.6 h 21 c 1.5,0 2.6,1.2 2.6,2.7 0,0.6 -0.2,1.1 -0.5,1.6 z"
       id="path14"
       style="fill:#ffffff;fill-opacity:1;stroke:none;stroke-opacity:1" /></g></svg>
